<?xml version="1.0" encoding="UTF-8" standalone="no"?>
<!-- Generator: Adobe Illustrator 19.0.0, SVG Export Plug-In . SVG Version: 6.00 Build 0)  -->

<svg
   xmlns:dc="http://purl.org/dc/elements/1.1/"
   xmlns:cc="http://creativecommons.org/ns#"
   xmlns:rdf="http://www.w3.org/1999/02/22-rdf-syntax-ns#"
   xmlns:svg="http://www.w3.org/2000/svg"
   xmlns="http://www.w3.org/2000/svg"
   xmlns:sodipodi="http://sodipodi.sourceforge.net/DTD/sodipodi-0.dtd"
   xmlns:inkscape="http://www.inkscape.org/namespaces/inkscape"
   version="1.1"
   id="Capa_1"
   x="0px"
   y="0px"
   viewBox="0 0 512 490"
   xml:space="preserve"
   sodipodi:docname="coracao.svg"
   width="512"
   height="490"
   inkscape:version="0.92.2 (5c3e80d, 2017-08-06)"><metadata
     id="metadata43"><rdf:RDF><cc:Work
         rdf:about=""><dc:format>image/svg+xml</dc:format><dc:type
           rdf:resource="http://purl.org/dc/dcmitype/StillImage" /><dc:title></dc:title></cc:Work></rdf:RDF></metadata><defs
     id="defs41" /><sodipodi:namedview
     pagecolor="#ffffff"
     bordercolor="#666666"
     borderopacity="1"
     objecttolerance="10"
     gridtolerance="10"
     guidetolerance="10"
     inkscape:pageopacity="0"
     inkscape:pageshadow="2"
     inkscape:window-width="1920"
     inkscape:window-height="1017"
     id="namedview39"
     showgrid="false"
     inkscape:zoom="0.49420565"
     inkscape:cx="238.767"
     inkscape:cy="238.767"
     inkscape:window-x="-8"
     inkscape:window-y="-8"
     inkscape:window-maximized="1"
     inkscape:current-layer="Capa_1" /><g
     id="g6"
     transform="matrix(1.0683995,0,0,1.0683995,0,-5.0414276)"
     style="stroke-width:0.93597943"><g
       id="g4"
       style="stroke-width:0.93597943"><path
         d="m 438.482,58.61 c -24.7,-26.549 -59.311,-41.655 -95.573,-41.711 -36.291,0.042 -70.938,15.14 -95.676,41.694 l -8.431,8.909 -8.431,-8.909 C 181.284,5.762 98.662,2.728 45.832,51.815 c -2.341,2.176 -4.602,4.436 -6.778,6.778 -52.072,56.166 -52.072,142.968 0,199.134 l 187.358,197.581 c 6.482,6.843 17.284,7.136 24.127,0.654 0.224,-0.212 0.442,-0.43 0.654,-0.654 L 438.483,257.727 C 490.551,201.567 490.551,114.77 438.482,58.61 Z M 413.787,234.226 H 413.77 L 238.802,418.768 63.818,234.226 c -39.78,-42.916 -39.78,-109.233 0,-152.149 36.125,-39.154 97.152,-41.609 136.306,-5.484 1.901,1.754 3.73,3.583 5.484,5.484 l 20.804,21.948 c 6.856,6.812 17.925,6.812 24.781,0 l 20.804,-21.931 c 36.125,-39.154 97.152,-41.609 136.306,-5.484 1.901,1.754 3.73,3.583 5.484,5.484 40.126,42.984 40.42,109.422 0,152.132 z"
         id="path2"
         inkscape:connector-curvature="0"
         style="stroke-width:0.93597943" /></g></g><g
     id="g8"
     transform="translate(0,12.466003)" /><g
     id="g10"
     transform="translate(0,12.466003)" /><g
     id="g12"
     transform="translate(0,12.466003)" /><g
     id="g14"
     transform="translate(0,12.466003)" /><g
     id="g16"
     transform="translate(0,12.466003)" /><g
     id="g18"
     transform="translate(0,12.466003)" /><g
     id="g20"
     transform="translate(0,12.466003)" /><g
     id="g22"
     transform="translate(0,12.466003)" /><g
     id="g24"
     transform="translate(0,12.466003)" /><g
     id="g26"
     transform="translate(0,12.466003)" /><g
     id="g28"
     transform="translate(0,12.466003)" /><g
     id="g30"
     transform="translate(0,12.466003)" /><g
     id="g32"
     transform="translate(0,12.466003)" /><g
     id="g34"
     transform="translate(0,12.466003)" /><g
     id="g36"
     transform="translate(0,12.466003)" /></svg>